<?xml version="1.0" encoding="UTF-8" standalone="no"?>
<!-- Created with Inkscape (http://www.inkscape.org/) -->

<svg
   version="1.1"
   id="svg748"
   width="309.99225"
   height="330.03802"
   viewBox="0 0 309.99225 330.03802"
   sodipodi:docname="spark.svg"
   inkscape:version="1.1 (c68e22c387, 2021-05-23)"
   xmlns:inkscape="http://www.inkscape.org/namespaces/inkscape"
   xmlns:sodipodi="http://sodipodi.sourceforge.net/DTD/sodipodi-0.dtd"
   xmlns="http://www.w3.org/2000/svg"
   xmlns:svg="http://www.w3.org/2000/svg">
  <defs
     id="defs752" />
  <sodipodi:namedview
     id="namedview750"
     pagecolor="#ffffff"
     bordercolor="#666666"
     borderopacity="1.0"
     inkscape:pageshadow="2"
     inkscape:pageopacity="0.0"
     inkscape:pagecheckerboard="0"
     showgrid="false"
     inkscape:zoom="1.3172205"
     inkscape:cx="130.19839"
     inkscape:cy="124.125"
     inkscape:window-width="1920"
     inkscape:window-height="1057"
     inkscape:window-x="1912"
     inkscape:window-y="-8"
     inkscape:window-maximized="1"
     inkscape:current-layer="g754"
     fit-margin-top="0"
     fit-margin-left="0"
     fit-margin-right="0"
     fit-margin-bottom="0" />
  <g
     inkscape:groupmode="layer"
     inkscape:label="Image"
     id="g754"
     transform="translate(-2.2551726,-1.0698892)">
    <path
       style="fill:#000000"
       d="m 241.25517,312.10791 c 0,-10.45 -0.16697,-19 -0.37104,-19 -0.20408,0 -4.81658,1.96043 -10.25,4.35651 -26.09038,11.50558 -50.51304,15.95301 -75.06023,13.66866 -37.39474,-3.47993 -65.21447,-16.13404 -91.169327,-41.46937 -23.68253,-23.11725 -37.19281,-49.26308 -41.62544,-80.5558 -0.81803,-5.775 -1.41101,-11.06897 -1.50564,-11.75 -0.391687,-2.81886 0.14026,-2.15757 -4.945852,-2.32363 -2.671815,-0.0872 -6.5367904,-0.046 -9.1644894,-0.0991 l -4.907979,-0.0991 v -8.36407 -8.36408 l 4.75,-0.0876 c 2.6125,-0.0482 6.9291724,0.0779 9.6371304,-0.079 l 4.484517,-0.25979 2.733853,-12.65434 c 6.156757,-28.49814 17.4492,-50.69294 37.73525,-71.339649 27.45385,-27.941921 60.681627,-42.684646 99.774167,-44.268474 23.21708,-0.940636 40.47594,2.05549 62.59851,10.867063 5.68039,2.262534 10.65616,3.786499 11.05727,3.386589 0.40112,-0.399911 0.86704,-10.138734 1.0354,-21.641829 l 0.30609,-20.9147184 c 9.17358,-0.03846 14.0118,-0.08795 17.57886,0.01495 v 0 l 0.65448,13.6465014 c 0.35996,7.505576 0.6884,20.212851 0.72987,28.23839 l 0.0754,14.591888 7.5166,6.397096 c 22.47853,19.130638 38.08967,43.953653 45.97425,73.102903 3.47775,12.85721 4.46989,42.30215 1.92061,57 -4.88805,28.18205 -17.02639,51.05765 -39.31226,74.08687 l -12.25,12.6586 v 25.12726 25.12727 h -9 -9 z m -43,-24.27158 c 13.03116,-3.43157 24.5,-7.96454 24.5,-9.68344 0,-0.77214 -2.475,-2.88062 -5.5,-4.68551 l -5.5,-3.28161 -17.75,-0.0389 c -9.7625,-0.0214 -17.75,-0.23794 -17.75,-0.48118 0,-0.24323 1.8615,-3.41115 4.13667,-7.03982 3.88909,-6.20272 4.02858,-6.67661 2.33071,-7.91812 -3.25361,-2.37913 -40.28723,-22.59984 -41.39086,-22.59984 -0.63821,0 -1.07652,2.23937 -1.07652,5.5 v 5.5 h -19.5 -19.5 v -33.5 -33.5 H 71.255173 c -28.63248,0 -30,0.0852 -30,1.86901 0,1.02796 0.69328,5.86546 1.54064,10.75 8.83668,50.93887 45.84499,88.69804 98.459357,100.45697 12.95031,2.89431 43.6477,2.16857 57,-1.34756 z m 59.24384,-33.36047 c 14.48839,-14.4361 25.08549,-32.27449 31.40682,-52.86795 2.64393,-8.61331 2.76449,-9.92377 2.80598,-30.5 0.0386,-19.12006 -0.19961,-22.38679 -2.15158,-29.51108 -6.75887,-24.66853 -19.51487,-44.87756 -39.30506,-62.270079 -6.86432,-6.03268 -10.08349,-8.23852 -11.60311,-7.95069 -1.15672,0.21909 -23.76082,12.28588 -50.23136,26.815089 l -48.12824,26.41676 -0.0186,43.02439 -0.0187,43.0244 25.75228,14.14303 c 14.16375,7.77867 26.39211,14.29269 27.17414,14.47561 0.83011,0.19416 3.36182,-2.454 6.08318,-6.36297 l 4.66132,-6.69555 8.82568,14.77399 8.82569,14.77398 10.58095,5.61648 10.58095,5.61647 3.007,-1.90389 c 1.65385,-1.04715 6.94254,-5.82524 11.75265,-10.61799 z M 101.25517,126.10791 v -32 h 19.5 19.5 v 5 c 0,2.75 0.27076,5 0.60169,5 0.33093,0 7.64343,-3.98167 16.25,-8.84816 8.60657,-4.86649 24.19831,-13.483109 34.64831,-19.148039 30.16472,-16.352256 28.14878,-15.056233 25.93622,-16.6741 -2.48951,-1.820376 -15.04036,-5.757104 -25.56147,-8.017675 -11.72171,-2.51853 -39.04158,-2.501575 -50.67082,0.03145 -31.09605,6.773187 -58.042987,23.715615 -76.339867,47.997404 -10.37325,13.76635 -20.05793,37.34585 -22.44547,52.56128 -1.10857,7.06475 -3.967586,5.78526 31.33141,5.96166 l 27.249997,0.13618 z"
       id="path1064"
       sodipodi:nodetypes="sssssssssccccscsssssscccsscsssscccccsssscsssssscccccsscssssssssscccssscccccsssccccsssssssssscc" />
  </g>
</svg>
